<svg xmlns="http://www.w3.org/2000/svg" xmlns:xlink="http://www.w3.org/1999/xlink" width="50" height="50" viewBox="0 0 50 50">
  <defs>
    <clipPath id="clip-Gallery">
      <rect width="50" height="50"/>
    </clipPath>
  </defs>
  <g id="Gallery" clip-path="url(#clip-Gallery)">
    <rect width="50" height="50" fill="rgba(255,255,255,0)"/>
    <g id="photo_1_" data-name="photo (1)" transform="translate(1.575 3.969)">
      <path id="Path_36751" data-name="Path 36751" d="M185.43,105.677a4.68,4.68,0,1,0-4.68-4.68A4.686,4.686,0,0,0,185.43,105.677Zm0-6.616A1.935,1.935,0,1,1,183.495,101,1.938,1.938,0,0,1,185.43,99.061Zm0,0" transform="translate(-164.21 -87.049)"/>
      <path id="Path_36752" data-name="Path 36752" d="M45.138.5H1.711A1.713,1.713,0,0,0,0,2.211V38.969A1.713,1.713,0,0,0,1.711,40.68H45.138a1.713,1.713,0,0,0,1.711-1.711V2.211A1.713,1.713,0,0,0,45.138.5ZM44.1,3.245V24.968l-8.633-8.634a1.446,1.446,0,0,0-2.041,0L21.22,28.545l-7.8-7.8a1.444,1.444,0,0,0-2.042,0L2.746,29.378V3.245ZM2.746,37.934V33.26L12.4,23.607l7.8,7.8a1.443,1.443,0,0,0,2.042,0L34.451,19.2,44.1,28.85v9.085Zm0,0"/>
    </g>
  </g>
</svg>
